<svg xmlns="http://www.w3.org/2000/svg" xmlns:xlink="http://www.w3.org/1999/xlink" width="1920" height="1080" viewBox="0 0 1920 1080"><defs><clipPath id="a"><rect width="696" height="705" fill="none"/></clipPath><clipPath id="d"><rect width="1920" height="1080"/></clipPath></defs><g id="c" clip-path="url(#d)"><rect width="1920" height="1080" fill="#002854"/><g transform="translate(1602 12)" clip-path="url(#a)"><g transform="translate(-1534 -63)"><path d="M348,0C540.2,0,696,155.8,696,348S540.2,696,348,696,0,540.2,0,348,155.8,0,348,0Z" transform="translate(1534 63)" fill="#0085ca"/></g></g><g transform="translate(-417 387)" clip-path="url(#a)"><g transform="translate(-1534 -63)"><path d="M348,0C540.2,0,696,155.8,696,348S540.2,696,348,696,0,540.2,0,348,155.8,0,348,0Z" transform="translate(1534 63)" fill="#0085ca"/></g></g></g></svg>